<svg width="101" height="90" viewBox="0 0 101 90" fill="none" xmlns="http://www.w3.org/2000/svg">
<g filter="url(#filter0_d_8_1812)">
<ellipse cx="50.5" cy="41" rx="46.5" ry="41" fill="#22873B" fill-opacity="0.98"/>
<path d="M54.9955 68.5201C52.331 70.5142 48.2789 70.4933 45.7762 68.456C43.6761 66.7463 41.0957 66.265 38.4862 65.8361C36.1979 65.4601 33.8829 65.6109 31.5785 65.6003C27.5304 65.5816 23.4821 65.5971 19.434 65.5977C19.1998 65.5977 18.965 65.6032 18.7316 65.589C16.3778 65.4464 15.3985 63.9766 16.3756 61.9633C17.5763 59.4897 18.8368 57.0413 20.0719 54.5822C20.1145 54.4974 20.1636 54.4155 20.2067 54.3309C21.2581 52.2685 21.8745 52.0144 24.5235 52.6917C23.2657 55.2703 22.0191 57.826 20.7915 60.3429C21.1759 60.7829 21.6091 60.6503 21.988 60.6513C26.2703 60.6617 30.5533 60.7027 34.8348 60.6452C38.8213 60.5917 42.6059 61.3062 46.1995 62.9143C46.3059 62.9619 46.4169 63.0763 46.6089 62.928C44.7867 61.7972 42.7888 61.1206 40.7013 60.6699C35.5716 59.5626 30.374 59.443 25.1453 59.774C24.193 59.8343 23.2326 59.7826 22.2408 59.7826C22.2635 58.7625 23.0274 58.6929 23.7071 58.6385C26.4048 58.4224 29.1003 58.1418 31.8163 58.2406C32.1135 58.2514 32.4115 58.2421 32.7102 58.205C29.5841 57.8435 26.4353 57.9778 23.278 57.9402C23.1569 57.0894 23.5975 56.7817 24.2816 56.7589C27.3867 56.6554 30.4939 56.4073 33.5959 56.8237C34.05 56.8847 34.511 56.9001 34.9759 56.8586C31.3956 56.3181 27.7859 56.0785 24.1462 56.0441C24.0392 55.1395 24.4747 54.7483 25.2605 54.724C27.7672 54.6465 30.2746 54.5808 32.7819 54.7515C35.0106 54.9032 37.2339 55.0815 39.4205 55.5651C36.5764 54.2911 33.515 53.7199 30.4712 53.1031C27.8516 52.5723 25.2039 52.2695 22.5132 52.3106C21.0777 52.3326 20.5124 51.5942 20.8913 50.3115C21.364 48.7112 22.3081 48.0269 24.0954 48.0972C26.6568 48.1979 29.0958 48.8781 31.5208 49.5843C36.7511 51.1076 41.7645 53.0568 46.1844 56.1606C48.0247 57.4529 49.4043 59.054 50.1238 61.1191C50.1817 61.2853 50.2925 61.4356 50.4494 61.7226C50.9261 60.594 51.3268 59.5829 52.0217 58.6993C53.9459 56.2527 56.6675 54.763 59.4459 53.392C64.4696 50.9131 69.7836 49.1588 75.3902 48.2219C76.0139 48.1177 76.6462 48.025 77.2777 48.0024C78.201 47.9694 78.9821 48.268 79.4912 49.0418C80.0655 49.9147 80.2183 50.858 79.9008 51.8253C79.7565 52.2649 79.2543 52.3343 78.8023 52.3214C74.7169 52.2047 70.7557 52.9471 66.8209 53.8459C65.245 54.2059 63.6722 54.5941 62.2204 55.409C63.4435 55.2627 64.6664 55.1145 65.8898 54.9706C69.1517 54.5869 72.4274 54.6212 75.7039 54.6977C75.9001 54.7023 76.1085 54.7409 76.2872 54.8146C76.7227 54.9942 77.0163 55.3362 76.931 55.7684C76.8527 56.1652 76.3969 56.0702 76.0823 56.07C73.0352 56.0674 70.0073 56.3333 66.9836 56.6416C66.1603 56.7256 65.3472 56.8975 64.5356 57.073C67.0634 56.8716 69.5809 56.5531 72.1213 56.5863C73.5918 56.6055 75.0618 56.6753 76.5312 56.7392C77.2427 56.7702 77.8563 56.9481 77.9195 57.9341C74.2175 58.0366 70.5294 57.786 66.8821 58.3141C70.291 58.0683 73.6824 58.2923 77.0674 58.6212C77.8289 58.6952 78.8234 58.5607 78.89 59.7315C77.3503 59.7315 75.8632 59.7786 74.3805 59.7232C68.5411 59.5051 62.7421 59.6054 57.1611 61.5102C56.0142 61.9016 54.9464 62.4582 53.9677 63.1614C56.3797 62.0404 58.9295 61.348 61.5715 60.947C62.7581 60.7668 63.956 60.6599 65.1635 60.6612C69.7135 60.6663 74.2635 60.6642 78.8135 60.6551C79.202 60.6544 79.6154 60.7552 80.1412 60.4185C78.8881 57.896 77.6232 55.3496 76.2742 52.6342C77.4409 52.5863 78.392 52.534 79.344 52.5146C79.7366 52.5066 79.8968 52.8009 80.0462 53.0962C81.5743 56.1161 83.1407 59.1195 84.6295 62.1562C85.5562 64.0464 84.707 65.3561 82.5011 65.5811C82.0706 65.625 81.6324 65.6106 81.1978 65.6104C76.2798 65.6087 71.3617 65.6159 66.4438 65.5965C63.8502 65.5862 61.313 65.8966 58.8319 66.6053C57.4418 67.0024 56.1469 67.5632 54.9955 68.5201ZM60.8327 59.1839C60.8151 59.2315 60.5828 59.2075 60.7784 59.3237C60.8012 59.3372 60.844 59.3269 60.8761 59.3207C62.2637 59.0541 63.6511 58.7867 65.1744 58.4932C63.6425 58.5558 62.2862 58.8296 60.8327 59.1839Z" fill="white"/>
<path d="M26.1705 20.1387C33.7971 17.1783 41.3525 14.245 48.902 11.2984C50.0269 10.8594 51.094 10.9261 52.2054 11.3591C59.8809 14.3491 67.5649 17.3199 75.2462 20.2966C76.1133 20.6327 76.9898 20.9487 77.8451 21.3093C78.5244 21.5957 79.0125 22.042 78.9998 22.8183C78.987 23.5993 78.4779 24.0164 77.7809 24.2735C76.7521 24.653 75.7172 25.0197 74.6737 25.3615C74.1569 25.5307 73.94 25.8078 73.9485 26.3358C73.9751 28.0041 73.964 29.673 73.9505 31.3416C73.947 31.7718 74.0568 32.1299 74.3664 32.4623C74.8335 32.9639 75.1504 33.5533 75.3816 34.1866C76.1821 36.3801 75.8452 37.4121 73.8624 38.7064C74.2348 39.9583 74.6155 41.2215 74.9855 42.4876C75.2226 43.2987 75.0131 44.0013 74.2828 44.4974C73.4615 45.0553 72.5641 45.1797 71.6341 44.7134C70.7382 44.2641 70.3276 43.4592 70.5102 42.4973C70.7163 41.4116 70.9765 40.3369 71.4527 39.3237C71.65 38.904 71.6159 38.6235 71.1351 38.4126C69.9454 37.8909 69.705 36.8987 69.769 35.8026C69.8365 34.6463 70.2258 33.5774 70.9736 32.6492C71.3158 32.2245 71.4592 31.7813 71.4517 31.2515C71.4298 29.7195 71.4439 28.1872 71.4439 26.6609C70.7766 26.5603 70.3319 26.8126 69.8681 26.9663C63.8655 28.9558 57.8609 30.9406 51.8673 32.9539C50.9676 33.2561 50.1496 33.2707 49.2405 32.9654C40.7857 30.1261 32.3197 27.3163 23.8577 24.496C23.637 24.4224 23.425 24.3261 23.2086 24.2411C22.5444 23.9803 22.0381 23.55 22.0022 22.8581C21.9641 22.1248 22.425 21.6195 23.1335 21.3333C24.1182 20.9355 25.1091 20.5514 26.1705 20.1387Z" fill="white"/>
<path d="M43.1885 51.1131C41.073 50.3685 39.1003 49.5181 37.4062 48.1289C35.8306 46.8369 34.9592 45.2702 35.0015 43.1515C35.0806 39.1832 35.021 35.2122 35.029 31.2424C35.0298 30.865 34.9286 30.4616 35.2734 30C36.4669 30.3939 37.7019 30.785 38.9257 31.2084C42.3822 32.4045 45.8411 33.5941 49.2834 34.8298C50.3128 35.1993 51.2553 35.0582 52.2358 34.7073C56.3566 33.2326 60.4834 31.7745 64.6103 30.3169C64.9714 30.1894 65.3286 29.9922 65.7446 30.1038C66.0476 30.4385 65.9391 30.8466 65.9405 31.2212C65.9542 35.0934 65.8617 38.9689 65.9952 42.8367C66.0825 45.3685 64.983 47.1739 63.0561 48.5545C59.584 51.0423 55.5952 52.2789 51.4239 52.9234C49.3711 53.2406 47.4185 52.5085 45.4839 51.9037C44.7361 51.6699 44.0009 51.3962 43.1885 51.1131Z" fill="white"/>
</g>
<defs>
<filter id="filter0_d_8_1812" x="0" y="0" width="101" height="90" filterUnits="userSpaceOnUse" color-interpolation-filters="sRGB">
<feFlood flood-opacity="0" result="BackgroundImageFix"/>
<feColorMatrix in="SourceAlpha" type="matrix" values="0 0 0 0 0 0 0 0 0 0 0 0 0 0 0 0 0 0 127 0" result="hardAlpha"/>
<feOffset dy="4"/>
<feGaussianBlur stdDeviation="2"/>
<feComposite in2="hardAlpha" operator="out"/>
<feColorMatrix type="matrix" values="0 0 0 0 0.473216 0 0 0 0 0.634615 0 0 0 0 0.424094 0 0 0 0.25 0"/>
<feBlend mode="normal" in2="BackgroundImageFix" result="effect1_dropShadow_8_1812"/>
<feBlend mode="normal" in="SourceGraphic" in2="effect1_dropShadow_8_1812" result="shape"/>
</filter>
</defs>
</svg>
