<svg width="23" height="27" viewBox="0 0 23 27" fill="none" xmlns="http://www.w3.org/2000/svg">
<path d="M17.0165 20.8243H20.7513L16.7127 24.6654V21.0953C16.7127 20.9458 16.849 20.8243 17.0165 20.8243ZM12.5095 5.91009L13.6609 5.77721L12.9421 4.85696L12.5095 5.91009ZM23 0.661765V19.5008H17.0165C16.0308 19.5008 15.2291 20.2161 15.2291 21.0953V27H0.741763C0.332013 27 0 26.7037 0 26.3382V0.661765C0 0.296338 0.332013 0 0.741763 0H22.2581C22.6678 0 23 0.296338 23 0.661765ZM10.5722 8.70353C10.6565 8.73106 10.7425 8.74416 10.8275 8.74416C11.1299 8.74416 11.414 8.57793 11.5239 8.30991L11.9341 7.31118L14.6169 7.00147L15.2986 7.87421C15.4429 8.05884 15.6733 8.15771 15.9077 8.15771C16.0541 8.15771 16.202 8.11906 16.3311 8.03885C16.6673 7.82987 16.7498 7.41746 16.5157 7.11768L13.3443 3.05749C13.3431 3.05603 13.3415 3.05484 13.3403 3.05338C13.3198 3.02744 13.2954 3.00415 13.2706 2.98099C13.2615 2.97251 13.2538 2.96232 13.2443 2.95438C13.2247 2.93797 13.2019 2.92447 13.1802 2.90991C13.1629 2.89826 13.1469 2.8849 13.1286 2.87471C13.1147 2.8669 13.0986 2.86174 13.084 2.85472C13.0553 2.84109 13.027 2.82706 12.9967 2.817C12.9947 2.81634 12.993 2.81515 12.9909 2.81449C12.9736 2.80879 12.9558 2.80694 12.9384 2.80244C12.9113 2.79556 12.8844 2.78788 12.8565 2.78378C12.8319 2.78007 12.8076 2.77981 12.783 2.77849C12.7597 2.77716 12.7365 2.77478 12.7131 2.77531C12.688 2.77597 12.6637 2.77981 12.6389 2.78272C12.6159 2.78537 12.5929 2.78709 12.5701 2.79172C12.5454 2.79675 12.522 2.80482 12.498 2.8121C12.4765 2.81859 12.4546 2.82388 12.4336 2.83235C12.4051 2.84374 12.3788 2.85843 12.3521 2.87285C12.3388 2.88013 12.3247 2.8849 12.3116 2.89297C12.3102 2.8939 12.309 2.89522 12.3075 2.89615C12.2777 2.91494 12.2508 2.93718 12.2243 2.95981C12.2152 2.96749 12.2047 2.97397 12.1961 2.98191C12.1781 2.99885 12.1636 3.01871 12.1477 3.03737C12.1341 3.05338 12.1185 3.06834 12.1068 3.08528C12.099 3.09626 12.094 3.1091 12.0869 3.12062C12.0704 3.14775 12.0539 3.17475 12.0419 3.20347C12.0412 3.20519 12.04 3.20651 12.0394 3.20824L10.131 7.85449C9.99007 8.19768 10.1875 8.57779 10.5722 8.70353ZM12.5235 20.1625C12.5235 19.7971 12.1915 19.5008 11.7817 19.5008H4.26781C3.85806 19.5008 3.52605 19.7971 3.52605 20.1625C3.52605 20.5279 3.85806 20.8243 4.26781 20.8243H11.7819C12.1915 20.8243 12.5235 20.5279 12.5235 20.1625ZM15.6772 16.1258C15.6772 15.7603 15.3451 15.464 14.9354 15.464H4.26781C3.85806 15.464 3.52605 15.7603 3.52605 16.1258C3.52605 16.4912 3.85806 16.7875 4.26781 16.7875H14.9354C15.3451 16.7875 15.6772 16.4912 15.6772 16.1258ZM17.9904 12.089C17.9904 11.7236 17.6584 11.4272 17.2487 11.4272H4.26781C3.85806 11.4272 3.52605 11.7236 3.52605 12.089C3.52605 12.4544 3.85806 12.7508 4.26781 12.7508H17.2487C17.6584 12.7508 17.9904 12.4544 17.9904 12.089ZM20.8161 4.23781C20.7636 3.87556 20.393 3.61946 19.9852 3.66644L18.994 3.78093L18.8657 2.89668C18.8132 2.53429 18.4428 2.27819 18.0348 2.32531C17.6286 2.37216 17.3417 2.7041 17.3943 3.06649L17.5227 3.95074L16.5315 4.06522C16.1253 4.11207 15.8384 4.44388 15.8911 4.8064C15.9395 5.14006 16.2586 5.38332 16.6259 5.38332C16.6575 5.38332 16.6897 5.38147 16.722 5.37776L17.7132 5.26328L17.8415 6.14753C17.8898 6.48119 18.2089 6.72446 18.5763 6.72446C18.6079 6.72446 18.6401 6.7226 18.6723 6.7189C19.0784 6.67204 19.3654 6.3401 19.3127 5.97772L19.1844 5.09347L20.1755 4.97899C20.5819 4.93213 20.8686 4.60032 20.8161 4.23781Z" fill="black"/>
</svg>
