<svg width="26" height="29" viewBox="0 0 26 29" fill="none" xmlns="http://www.w3.org/2000/svg">
<path d="M25.9961 20.5601C25.9962 22.567 26.0031 24.4947 25.9942 26.4223C25.9864 28.0878 24.9911 28.9887 23.0969 28.9918C16.3692 29.003 9.64134 29.0024 2.91357 28.9919C1.01145 28.989 0.00994117 28.1045 0.00759213 26.4273C-0.00249241 19.2183 -0.00269818 12.0093 0.00798086 4.80032C0.0103632 3.18909 1.04162 2.31014 2.87796 2.29474C3.78704 2.28711 4.69627 2.2939 5.60543 2.29299C6.19096 2.2924 6.80315 2.42028 7.06595 1.70003C7.13109 1.52148 7.67264 1.40496 8.00525 1.38461C8.75882 1.33854 9.51864 1.37013 10.3431 1.37013C10.777 -0.407029 12.4161 0.074153 13.7685 0.0230358C14.7966 -0.0158104 15.4201 0.443626 15.625 1.37012C16.2754 1.37012 16.906 1.38345 17.5355 1.36661C18.2572 1.3473 18.9375 1.34142 19.2393 2.09819C19.2841 2.21065 19.6339 2.28135 19.8445 2.28467C20.9957 2.30284 22.1477 2.28043 23.299 2.29752C24.9392 2.32184 25.981 3.24169 25.9902 4.71618C26.0092 7.75281 25.9948 10.7896 25.9947 13.8263C25.9947 16.0445 25.9956 18.2626 25.9961 20.5601ZM3.07935 25.5412C3.07935 25.7937 3.07935 26.0463 3.07935 26.3137C9.74108 26.3137 16.2818 26.3137 22.8517 26.3137C22.8517 19.2012 22.8517 12.1141 22.8517 5.00016C21.5822 5.00016 20.3715 4.98866 19.1616 5.00972C18.9145 5.01402 18.6698 5.1396 18.4247 5.21112C17.7017 5.42206 16.9881 5.78229 16.2544 5.8164C14.3801 5.90356 12.4969 5.84239 10.6173 5.84678C9.46729 5.84946 8.29007 5.95457 7.40984 5.08787C7.35883 5.03762 7.25051 5.00878 7.16868 5.00849C5.81894 5.00369 4.46916 5.00508 3.0794 5.00508C3.0794 11.8661 3.0794 18.6253 3.07935 25.5412ZM4.43103 3.14591C4.09756 3.14591 3.76409 3.14581 3.43062 3.14592C1.43932 3.14659 1.01877 3.50595 1.01871 5.20958C1.01848 12.2097 1.018 19.2099 1.01912 26.2101C1.01936 27.726 1.49144 28.1425 3.21574 28.1429C9.73365 28.1445 16.2516 28.1444 22.7695 28.143C24.5166 28.1426 25.0211 27.6952 25.0214 26.1494C25.0224 19.1493 25.0221 12.1491 25.0206 5.14894C25.0205 4.91167 25.0197 4.6727 24.9892 4.43747C24.9005 3.75204 24.4608 3.25026 23.6828 3.21437C22.2165 3.14672 20.7432 3.19485 19.2483 3.19485C19.2483 3.51117 19.2483 3.76817 19.2483 4.09521C20.3182 4.09521 21.3731 4.09267 22.428 4.0959C23.5579 4.09936 23.9069 4.3789 23.9079 5.35835C23.915 12.2264 23.9147 19.0945 23.908 25.9626C23.9071 26.9047 23.5643 27.1921 22.4922 27.1927C16.1562 27.1959 9.82019 27.1961 3.48417 27.1924C2.44353 27.1918 2.12518 26.9193 2.12459 26.0184C2.12007 19.0975 2.1201 12.1766 2.12475 5.25566C2.12534 4.38752 2.47714 4.10242 3.51201 4.09661C4.59831 4.09052 5.68469 4.09525 6.82447 4.09525C6.79576 3.748 6.77286 3.47102 6.74598 3.14591C5.99597 3.14591 5.30278 3.14591 4.43103 3.14591ZM9.60518 5.01693C11.8793 5.0169 14.1536 5.02501 16.4276 5.01306C17.4222 5.00784 18.0661 4.62102 18.1635 3.92339C18.2382 3.38821 18.1784 2.83877 18.1784 2.25635C16.4053 2.25635 14.7108 2.25635 13.0163 2.25635C11.2972 2.25635 9.57813 2.25635 7.86965 2.25635C7.58367 4.24696 7.90512 4.79364 9.60518 5.01693ZM11.9989 0.905047C11.801 1.01032 11.6032 1.1156 11.4053 1.22088C12.3834 1.37167 13.2806 1.37303 14.1779 1.36991C14.2863 1.36954 14.3947 1.34493 14.7049 1.30667C13.8348 0.645792 12.9458 1.00635 11.9989 0.905047Z" fill="black"/>
<path d="M10.2833 13.9678C10.6447 13.8835 10.9522 13.8286 11.2598 13.7737C11.1875 14.0425 11.2105 14.3847 11.0258 14.5669C10.3862 15.1978 9.65225 15.7552 8.99755 16.3753C8.51562 16.8318 8.10617 16.8421 7.65018 16.3743C7.45511 16.1741 7.16296 16.0254 7.03646 15.8013C6.92955 15.6118 6.99805 15.3472 6.98893 15.1159C7.23154 15.1448 7.52655 15.1098 7.70303 15.2195C7.90717 15.3464 8.00695 15.6008 8.04116 15.6477C8.62898 15.2687 9.05142 14.9964 9.47385 14.724C9.44076 14.6749 9.40768 14.6257 9.37458 14.5765C8.34579 14.5765 7.31701 14.5765 6.24125 14.5765C6.24125 15.4377 6.24125 16.2949 6.24125 17.202C7.26937 17.202 8.28157 17.202 9.34505 17.202C9.3814 17.0107 9.3752 16.7932 9.47251 16.6199C9.53621 16.5065 9.75245 16.3924 9.89547 16.3969C10.0385 16.4014 10.2342 16.5263 10.3052 16.6447C10.6815 17.2721 10.1841 18.0605 9.34704 18.0973C8.32067 18.1423 7.28878 18.1319 6.26111 18.1001C5.58387 18.0792 5.22764 17.7336 5.23316 17.1227C5.24078 16.2789 5.1628 15.4279 5.27016 14.5946C5.31382 14.2556 5.72178 13.7032 6.00878 13.6807C7.20377 13.5867 8.41648 13.6424 9.62096 13.6825C9.82805 13.6894 10.0268 13.8874 10.2833 13.9678Z" fill="black"/>
<path d="M5.23357 10.2487C5.23379 9.61796 5.25693 9.06432 5.22769 8.51278C5.19928 7.97697 5.45741 7.73215 6.07037 7.73607C7.21815 7.74341 8.36609 7.74457 9.51383 7.73555C10.1226 7.73076 10.3835 7.96495 10.3705 8.50318C10.3465 9.50291 10.3449 10.5038 10.3715 11.5034C10.385 12.0136 10.1142 12.2363 9.57007 12.2401C8.39211 12.2482 7.21399 12.2477 6.03602 12.2403C5.49612 12.2369 5.1933 12.0262 5.22871 11.5109C5.25574 11.1175 5.23375 10.7216 5.23357 10.2487ZM7.88503 8.59487C7.35055 8.59487 6.81607 8.59487 6.24338 8.59487C6.24338 9.55379 6.24338 10.4304 6.24338 11.2986C7.3253 11.2986 8.3568 11.2986 9.35838 11.2986C9.35838 10.3769 9.35838 9.51838 9.35838 8.59485C8.89566 8.59485 8.47931 8.59485 7.88503 8.59487Z" fill="black"/>
<path d="M5.23379 20.4512C5.14664 19.7707 5.44341 19.5019 6.15436 19.5154C7.27564 19.5366 8.3979 19.5275 9.51963 19.5191C10.1297 19.5145 10.3879 19.7457 10.3721 20.2895C10.343 21.2928 10.3471 22.2974 10.3705 23.3009C10.3823 23.8056 10.1438 24.0317 9.57066 24.0287C8.38825 24.0223 7.20574 24.0227 6.02333 24.0284C5.44988 24.0312 5.21287 23.804 5.22696 23.2984C5.2527 22.3743 5.23396 21.4493 5.23379 20.4512ZM6.19477 20.9939C6.19477 21.6961 6.19477 22.3984 6.19477 23.1297C7.30133 23.1297 8.31162 23.1297 9.35747 23.1297C9.35747 22.2119 9.35747 21.3349 9.35747 20.4045C8.4121 20.4045 7.51238 20.3846 6.61613 20.4242C6.46794 20.4307 6.33487 20.6973 6.19477 20.9939Z" fill="black"/>
<path d="M11.6803 10.0972C14.3737 10.0374 17.0036 10.0021 19.6334 10.0073C19.8388 10.0078 20.0434 10.291 20.2484 10.4428C20.0393 10.5904 19.8322 10.864 19.6209 10.8664C17.1087 10.8954 14.5958 10.8971 12.0835 10.8725C11.563 10.8675 11.2877 10.6111 11.6803 10.0972Z" fill="black"/>
<path d="M18.6859 17.2259C16.5438 17.229 14.488 17.2529 12.4337 17.2137C12.1094 17.2075 11.7922 16.9161 11.4717 16.7566C11.784 16.6185 12.094 16.3655 12.409 16.3607C14.6753 16.3264 16.9426 16.3376 19.2096 16.3465C19.6352 16.3482 20.2457 16.2232 20.2028 16.8187C20.1917 16.9734 19.5743 17.1087 19.2229 17.2239C19.0912 17.2671 18.9238 17.2277 18.6859 17.2259Z" fill="black"/>
<path d="M17.6183 23.1007C15.8059 23.1007 14.0835 23.1218 12.3631 23.0805C12.0652 23.0734 11.7756 22.8021 11.4822 22.6528C11.7681 22.5244 12.0522 22.2883 12.3402 22.2846C14.6958 22.2544 17.0523 22.2541 19.4078 22.2855C19.6868 22.2892 19.9615 22.5379 20.2382 22.6731C19.969 22.8156 19.7136 23.0486 19.4278 23.0815C18.8637 23.1465 18.2828 23.1007 17.6183 23.1007Z" fill="#020202"/>
<path d="M14.165 15.3863C13.4107 15.385 12.7441 15.413 12.0847 15.3654C11.8749 15.3503 11.6841 15.1344 11.4846 15.0104C11.6787 14.8524 11.869 14.5617 12.0675 14.5573C13.726 14.5205 15.3865 14.5209 17.045 14.5568C17.245 14.5611 17.4372 14.8442 17.633 14.998C17.4425 15.1267 17.2579 15.3583 17.0607 15.3667C16.1275 15.4066 15.1909 15.3856 14.165 15.3863Z" fill="#050505"/>
<path d="M11.6681 20.5395C12.4478 20.4716 13.1703 20.4096 13.8879 20.4388C14.1089 20.4478 14.3166 20.7054 14.5303 20.8492C14.3276 21.0029 14.1397 21.2664 13.9192 21.2892C13.3222 21.3506 12.7093 21.3361 12.1066 21.3014C11.601 21.2723 11.283 21.078 11.6681 20.5395Z" fill="black"/>
<path d="M11.7761 8.23599C12.3583 8.20314 12.8762 8.15384 13.3775 8.21239C13.6003 8.2384 13.7896 8.48199 13.9941 8.62682C13.782 8.76214 13.5866 8.97866 13.3541 9.0149C12.9462 9.07849 12.5134 9.05472 12.0949 9.02568C11.4659 8.98203 11.2609 8.74031 11.7761 8.23599Z" fill="#050505"/>
</svg>
