<svg width="262" height="264" viewBox="0 0 262 264" fill="none" xmlns="http://www.w3.org/2000/svg">
<path d="M241.008 68.0016C241.008 67.9475 240.954 67.8393 240.954 67.7852C240.954 67.677 240.9 67.6229 240.9 67.5147C240.9 67.4607 240.847 67.3525 240.847 67.2984C240.793 67.1902 240.793 67.1361 240.739 67.0279C240.739 66.9738 240.686 66.8656 240.686 66.8115C240.632 66.6492 240.578 66.541 240.471 66.3787C240.417 66.3246 240.417 66.2705 240.364 66.2164C240.31 66.1082 240.256 66.0541 240.202 65.9459C240.149 65.8918 240.149 65.8377 240.095 65.7836C240.041 65.7295 240.041 65.6754 239.988 65.6213L191.668 2.10985L191.614 2.05573C191.507 1.94753 191.453 1.83935 191.346 1.73115C191.292 1.67706 191.292 1.62295 191.239 1.62295C191.131 1.46066 190.97 1.35245 190.809 1.24426C190.809 1.24426 190.809 1.24427 190.755 1.19017C190.594 1.08197 190.487 0.97379 190.326 0.865594C190.272 0.811495 190.218 0.811489 190.165 0.75739C190.057 0.703292 189.95 0.595082 189.789 0.540984C189.735 0.540984 189.682 0.486898 189.628 0.486898C189.52 0.4328 189.359 0.378708 189.252 0.32461C189.198 0.32461 189.145 0.270492 189.091 0.270492C188.984 0.216393 188.823 0.162288 188.715 0.162288C188.661 0.162288 188.608 0.108203 188.554 0.108203C188.393 0.054105 188.286 0.0541182 188.125 0.0541182C188.071 0.0541182 188.017 0.0541182 187.964 0.0541182C187.749 0.0541182 187.588 0 187.373 0H26.3074C23.3545 0 20.9385 2.43443 20.9385 5.40984V258.59C20.9385 261.566 23.3545 264 26.3074 264H235.693C238.645 264 241.061 261.566 241.061 258.59V68.9213C241.061 68.8131 241.061 68.6508 241.061 68.4885C241.061 68.4344 241.061 68.3803 241.061 68.3262C241.061 68.218 241.008 68.1098 241.008 68.0016ZM224.794 63.5656H192.849L192.742 21.4771L224.794 63.5656ZM230.324 253.234H31.6762V10.8738H182.004L182.111 68.9754C182.111 71.9508 184.527 74.3852 187.48 74.3852H230.324V253.234Z" fill="black"/>
<path d="M54.3865 99.0541C54.3865 102.03 56.8025 104.464 59.7553 104.464H202.674C205.627 104.464 208.043 102.03 208.043 99.0541C208.043 96.0787 205.627 93.6443 202.674 93.6443H59.7553C56.8025 93.6443 54.3865 96.0787 54.3865 99.0541Z" fill="black"/>
<path d="M59.7553 71.464H153.12C156.073 71.464 158.435 69.0295 158.435 66.0541C158.435 63.0787 156.019 60.6443 153.066 60.6443H59.7553C56.8025 60.6443 54.3865 63.0787 54.3865 66.0541C54.3865 69.0295 56.8025 71.464 59.7553 71.464Z" fill="black"/>
<path d="M59.7553 137.464H202.674C205.627 137.464 208.043 135.03 208.043 132.054C208.043 129.079 205.627 126.644 202.674 126.644H59.7553C56.8025 126.644 54.3865 129.079 54.3865 132.054C54.3865 135.03 56.8025 137.464 59.7553 137.464Z" fill="black"/>
<path d="M153.12 170.464C156.073 170.464 158.435 168.03 158.435 165.054C158.435 162.079 156.019 159.644 153.066 159.644H59.7553C56.8025 159.644 54.3865 162.079 54.3865 165.054C54.3865 168.03 56.8025 170.464 59.7553 170.464H153.12Z" fill="black"/>
<path d="M199.131 177.389L153.925 217.638L140.879 200.056C139.107 197.675 135.725 197.188 133.362 198.974C131 200.759 130.517 204.167 132.289 206.547L148.825 228.836C149.737 230.08 151.08 230.838 152.583 231C152.744 231.054 152.959 231.054 153.12 231.054C154.408 231.054 155.643 230.567 156.663 229.648L206.218 185.503C208.473 183.556 208.687 180.093 206.701 177.875C204.768 175.603 201.332 175.387 199.131 177.389Z" fill="black"/>
</svg>
