<svg width="344" height="317" viewBox="0 0 344 317" fill="none" xmlns="http://www.w3.org/2000/svg">
<path d="M143.333 277.375H200.667C200.667 284.381 197.646 291.1 192.27 296.054C186.894 301.008 179.603 303.792 172 303.792C164.397 303.792 157.106 301.008 151.73 296.054C146.354 291.1 143.333 284.381 143.333 277.375ZM44.0893 242.809C43.0042 240.395 42.7206 237.738 43.2742 235.175C43.8279 232.613 45.194 230.259 47.1997 228.412L71.6667 205.865V132.083C71.7128 109.874 80.4257 88.4198 96.2145 71.6393C112.003 54.8587 133.815 43.8708 157.667 40.6817V26.4167C157.667 22.9136 159.177 19.554 161.865 17.077C164.553 14.6 168.199 13.2084 172 13.2084C175.801 13.2084 179.447 14.6 182.135 17.077C184.823 19.554 186.333 22.9136 186.333 26.4167V40.6817C210.185 43.8708 231.997 54.8587 247.786 71.6393C263.574 88.4198 272.287 109.874 272.333 132.083V205.865L296.8 228.412C298.804 230.259 300.169 232.612 300.722 235.174C301.275 237.736 300.991 240.391 299.906 242.804C298.821 245.217 296.985 247.28 294.628 248.731C292.272 250.183 289.501 250.958 286.667 250.958H57.3333C54.4987 250.959 51.7275 250.185 49.3701 248.735C47.0127 247.284 45.175 245.222 44.0893 242.809ZM91.934 224.542H252.066L247.866 220.672C245.178 218.195 243.667 214.836 243.667 211.333V132.083C243.667 114.568 236.116 97.7701 222.676 85.3849C209.236 72.9996 191.007 66.0417 172 66.0417C152.993 66.0417 134.764 72.9996 121.324 85.3849C107.884 97.7701 100.333 114.568 100.333 132.083V211.333C100.333 214.836 98.8219 218.195 96.1337 220.672L91.934 224.542Z" fill="black"/>
</svg>
