<svg width="370" height="303" viewBox="0 0 370 303" fill="none" xmlns="http://www.w3.org/2000/svg">
<path d="M295.477 134.331C291.868 132.004 259.998 103.264 241.951 89.8686C241.874 89.8057 241.874 89.8057 241.874 89.7428V27.8599C241.874 12.5149 226.592 0 207.854 0H96.4235C78.991 0 64.7838 11.6974 64.7838 25.9103V171.059C64.7838 186.403 80.0661 198.918 98.8042 198.918H131.212H139.429C140.811 198.918 141.963 197.912 141.81 196.78L140.043 184.454C139.89 183.448 138.891 182.756 137.663 182.756H134.668H132.824C131.519 182.756 130.444 181.875 130.444 180.806V15.911C130.444 14.8418 131.519 13.9614 132.824 13.9614H208.084C215.687 13.9614 221.907 19.0554 221.907 25.2814V159.99V173.26C221.907 177.536 218.298 181.184 213.46 182.316C213.383 182.316 213.383 182.316 213.306 182.316C205.089 178.668 195.413 163.072 193.954 160.619C193.8 160.43 193.723 160.179 193.723 159.99C193.186 156.028 187.733 117.666 162.775 117.666C162.084 117.666 161.392 117.666 160.701 117.729C160.701 117.729 140.734 119.112 157.245 165.713C157.245 165.839 157.322 165.902 157.322 166.027L164.618 217.659C164.618 217.722 164.618 217.785 164.695 217.911C165.309 219.86 173.603 246.211 195.029 264.889C195.413 265.266 195.643 265.707 195.643 266.21V270.675C195.643 270.801 195.566 270.864 195.413 270.864H193.493C188.808 270.864 184.969 274.008 184.969 277.844V296.019C184.969 299.856 188.808 303 193.493 303H283.881C288.565 303 292.405 299.856 292.405 296.019V277.97C292.405 274.134 288.565 270.989 283.881 270.989C283.727 270.989 283.651 270.926 283.651 270.801C286.646 248.035 297.397 170.178 303.157 164.078C303.31 163.889 303.464 163.7 303.541 163.449C304.539 160.619 309.531 143.324 295.477 134.331ZM100.34 180.932C100.34 181.938 99.3417 182.693 98.1898 182.693C90.6638 182.693 84.5202 177.662 84.5202 171.499V25.1557C84.5202 18.9925 90.6638 13.9614 98.1898 13.9614C99.4185 13.9614 100.34 14.779 100.34 15.7223V180.932Z" fill="black"/>
</svg>
