<svg width="338" height="297" viewBox="0 0 338 297" fill="none" xmlns="http://www.w3.org/2000/svg">
<path d="M255.042 167.007V129.993L278.427 109.444C273.891 99.2213 267.6 89.6685 259.774 81.1181L227.875 88.6359L191.392 70.1291L182.837 42.0626C170.494 40.4109 157.937 40.4109 145.593 42.0626L137.038 70.1291L100.555 88.6359L68.6562 81.1181C60.84 89.6569 54.5236 99.2166 49.9817 109.444L73.3671 129.993V167.007L49.9817 187.556C54.5236 197.783 60.8189 207.325 68.6562 215.882L100.555 208.364L137.038 226.871L145.593 254.937C157.937 256.589 170.494 256.589 182.837 254.937L191.392 226.871L227.875 208.364L259.774 215.882C267.59 207.343 273.907 197.783 278.427 187.556L255.042 167.007ZM268.161 240.923L231.445 232.273L213.151 241.554L203.307 273.853C190.843 276.823 177.746 278.438 164.226 278.438C150.685 278.438 137.566 276.841 125.123 273.853L115.258 241.554L96.9637 232.273L60.2696 240.923C41.3727 224.537 27.8504 203.979 21.125 181.411L48.0171 157.781V139.219L21.125 115.589C27.8469 93.0145 41.3694 72.4499 60.2696 56.0587L96.9637 64.7089L115.258 55.4276L125.123 23.1289C137.86 20.0825 151.004 18.5468 164.205 18.5625C177.746 18.5625 190.864 20.1589 203.307 23.1474L213.151 55.4462L231.445 64.7274L268.161 56.0773C286.751 72.2267 300.482 92.664 307.305 115.589L280.392 139.219V157.781L307.305 181.411C300.58 203.979 287.058 224.537 268.161 240.923ZM164.226 181.913C169.219 181.913 174.164 181.048 178.777 179.369C183.391 177.69 187.583 175.229 191.113 172.126C194.644 169.024 197.445 165.34 199.356 161.286C201.267 157.233 202.251 152.888 202.251 148.5C202.251 144.112 201.267 139.767 199.356 135.714C197.445 131.66 194.644 127.976 191.113 124.874C187.583 121.771 183.391 119.31 178.777 117.631C174.164 115.952 169.219 115.087 164.226 115.087C154.141 115.087 144.469 118.608 137.338 124.874C130.207 131.14 126.201 139.638 126.201 148.5C126.201 157.362 130.207 165.86 137.338 172.126C144.469 178.392 154.141 181.913 164.226 181.913ZM164.226 204.188C147.418 204.188 131.298 198.32 119.413 187.877C107.528 177.434 100.851 163.269 100.851 148.5C100.851 133.731 107.528 119.566 119.413 109.123C131.298 98.6796 147.418 92.8125 164.226 92.8125C181.034 92.8125 197.153 98.6796 209.039 109.123C220.924 119.566 227.601 133.731 227.601 148.5C227.601 163.269 220.924 177.434 209.039 187.877C197.153 198.32 181.034 204.188 164.226 204.188Z" fill="black"/>
</svg>
