<svg width="170" height="162" viewBox="0 0 170 162" fill="none" xmlns="http://www.w3.org/2000/svg">
<path fill-rule="evenodd" clip-rule="evenodd" d="M16.631 152.456L117.642 153.337C122.292 153.377 126.154 149.818 126.27 145.386L129.622 17.0024C129.737 12.5709 126.063 8.94557 121.414 8.90505L20.4021 8.02466C15.7532 7.98414 11.8907 11.5437 11.775 15.9753L8.42291 144.359C8.3072 148.79 11.9821 152.416 16.631 152.456ZM117.433 161.361L16.4215 160.48C7.12367 160.399 -0.226114 153.148 0.00529339 144.285L3.35735 15.9019C3.58876 7.03886 11.3137 -0.0803481 20.6116 0.00068966L121.623 0.88108C130.921 0.962116 138.271 8.21272 138.039 17.0758L134.687 145.459C134.456 154.322 126.731 161.442 117.433 161.361Z" fill="black"/>
<path fill-rule="evenodd" clip-rule="evenodd" d="M62.0777 37.0903C62.1365 34.837 64.0792 33.0269 66.4171 33.0472L117.211 33.4899C119.549 33.5103 121.397 35.3534 121.338 37.6068C121.279 39.8602 119.336 41.6703 116.998 41.6499L66.204 41.2072C63.8662 41.1868 62.0188 39.3437 62.0777 37.0903Z" fill="black"/>
<path fill-rule="evenodd" clip-rule="evenodd" d="M61.6516 53.4103C61.7104 51.1569 63.6531 49.3468 65.9909 49.3672L116.785 49.8099C119.123 49.8303 120.97 51.6734 120.912 53.9268C120.853 56.1801 118.91 57.9902 116.572 57.9699L65.7779 57.5271C63.4401 57.5068 61.5927 55.6636 61.6516 53.4103Z" fill="black"/>
<path fill-rule="evenodd" clip-rule="evenodd" d="M60.8704 83.3302C60.9292 81.0768 62.8719 79.2667 65.2097 79.2871L116.004 79.7298C118.342 79.7502 120.189 81.5933 120.13 83.8467C120.072 86.1 118.129 87.9101 115.791 87.8898L64.9967 87.447C62.6589 87.4267 60.8115 85.5835 60.8704 83.3302Z" fill="black"/>
<path fill-rule="evenodd" clip-rule="evenodd" d="M60.4442 99.6501C60.5031 97.3967 62.4458 95.5866 64.7836 95.607L115.578 96.0497C117.916 96.0701 119.763 97.9132 119.704 100.167C119.645 102.42 117.703 104.23 115.365 104.21L64.5706 103.767C62.2328 103.747 60.3854 101.903 60.4442 99.6501Z" fill="black"/>
<path fill-rule="evenodd" clip-rule="evenodd" d="M26.1212 87.4969L25.7864 100.32L38.485 100.43L38.8198 87.6076L26.1212 87.4969ZM22.1115 78.9114L43.2758 79.0959C45.6136 79.1163 47.4587 81.0464 47.3971 83.4071L46.8391 104.778C46.7774 107.139 44.8324 109.036 42.4946 109.016L21.3303 108.831C18.9926 108.811 17.1474 106.881 17.2091 104.52L17.7671 83.1488C17.8287 80.7881 19.7738 78.8911 22.1115 78.9114Z" fill="black"/>
<path fill-rule="evenodd" clip-rule="evenodd" d="M50.1971 34.0239C51.736 35.528 51.6729 37.9446 50.0562 39.4212L30.5682 57.2203L19.9 46.7932C18.361 45.2891 18.4241 42.8725 20.0409 41.3959C21.6577 39.9193 24.216 39.9416 25.755 41.4457L30.8501 46.4256L44.4831 33.9741C46.0998 32.4975 48.6582 32.5198 50.1971 34.0239Z" fill="black"/>
<path fill-rule="evenodd" clip-rule="evenodd" d="M160.577 82.5915L152.496 82.5211L150.912 143.185L154.815 148.496L158.993 143.255L160.577 82.5915ZM167.005 145.964L154.47 161.683L142.762 145.752L144.622 74.538L168.864 74.7493L167.005 145.964Z" fill="black"/>
<path fill-rule="evenodd" clip-rule="evenodd" d="M161.352 52.9189L153.271 52.8485L153.058 61.0085L161.139 61.0789L161.352 52.9189ZM153.484 44.6885L161.565 44.759C166.028 44.7979 169.55 48.4826 169.433 52.9894L169.006 69.3093L144.764 69.098L145.19 52.7781C145.308 48.2713 149.021 44.6496 153.484 44.6885Z" fill="black"/>
</svg>
