<svg width="205" height="215" viewBox="0 0 205 215" fill="none" xmlns="http://www.w3.org/2000/svg">
<g clip-path="url(#clip0_13_6648)">
<path d="M68.1248 25.8103C67.6807 24.3756 66.5754 23.2711 65.1866 22.873L47.6882 17.8624L37.7369 1.95787C36.1603 -0.566035 32.1731 -0.566035 30.5966 1.95787L20.6473 17.8624L3.14687 22.873C1.75802 23.2711 0.652772 24.3756 0.208589 25.8103C-0.235594 27.2472 0.0396741 28.8197 0.938468 29.9964L12.2891 44.838L11.4237 63.8395C11.3549 65.3486 12.0159 66.7899 13.1796 67.6778C13.9199 68.2421 14.802 68.533 15.6904 68.533C16.1992 68.533 16.7122 68.4368 17.2023 68.2421L34.1667 61.508L51.1333 68.2421C52.4783 68.7779 53.9923 68.5658 55.1559 67.6778C56.3196 66.7899 56.9806 65.3486 56.9118 63.8395L56.0464 44.838L67.395 29.9964C68.2938 28.8197 68.569 27.245 68.1248 25.8103ZM48.3702 40.5557C47.7195 41.4065 47.388 42.4803 47.4359 43.5717L48.0678 57.4488L35.6786 52.53C35.1906 52.3354 34.6797 52.2391 34.1667 52.2391C33.6537 52.2391 33.1428 52.3354 32.6548 52.53L20.2677 57.4466L20.8996 43.5717C20.9497 42.4803 20.616 41.4065 19.9654 40.5557L11.676 29.7186L24.4552 26.0596C25.4603 25.7709 26.3299 25.1083 26.9013 24.194L34.1667 12.5806L41.4342 24.194C42.0056 25.1083 42.8752 25.7709 43.8804 26.0596L56.6574 29.7186L48.3702 40.5557Z" fill="black"/>
<path d="M158.021 22.3306H85.4166V31.2889H158.021V22.3306Z" fill="black"/>
<path d="M205 44.7266H85.4166V53.6849H205V44.7266Z" fill="black"/>
<path d="M68.1248 99.0103C67.6786 97.5755 66.5754 96.4711 65.1866 96.073L47.6882 91.0646L37.7369 75.16C36.1603 72.6361 32.1731 72.6361 30.5966 75.16L20.6473 91.0646L3.14687 96.073C1.75802 96.4711 0.654858 97.5755 0.208589 99.0103C-0.235594 100.445 0.0396741 102.02 0.938468 103.196L12.2891 118.038L11.4237 137.039C11.3549 138.549 12.0159 139.99 13.1796 140.878C14.3411 141.761 15.8551 141.974 17.2023 141.442L34.1667 134.708L51.1333 141.442C51.6233 141.637 52.1363 141.733 52.6452 141.733C53.5335 141.733 54.4156 141.442 55.1559 140.878C56.3196 139.99 56.9806 138.549 56.9118 137.039L56.0464 118.038L67.395 103.196C68.2938 102.02 68.569 100.445 68.1248 99.0103ZM48.3702 113.756C47.7195 114.606 47.388 115.68 47.4359 116.772L48.0678 130.649L35.6786 125.73C35.1906 125.535 34.6797 125.439 34.1667 125.439C33.6537 125.439 33.1428 125.535 32.6548 125.73L20.2677 130.647L20.8996 116.772C20.9497 115.68 20.616 114.606 19.9654 113.756L11.676 102.919L24.4552 99.2618C25.4603 98.9731 26.3299 98.3104 26.9013 97.3962L34.1667 85.7827L41.4342 97.3962C42.0056 98.3104 42.8752 98.9731 43.8804 99.2618L56.6574 102.919L48.3702 113.756Z" fill="black"/>
<path d="M158.021 93.9973H85.4166V102.956H158.021V93.9973Z" fill="black"/>
<path d="M205 116.393H85.4166V125.351H205V116.393Z" fill="black"/>
<path d="M68.1248 172.212C67.6786 170.777 66.5754 169.673 65.1866 169.275L47.6882 164.266L37.7369 148.36C36.1603 145.836 32.1731 145.836 30.5966 148.36L20.6473 164.266L3.14687 169.275C1.75802 169.673 0.654858 170.777 0.208589 172.212C-0.235594 173.647 0.0396741 175.222 0.938468 176.398L12.2891 191.24L11.4237 210.241C11.3549 211.75 12.0159 213.192 13.1796 214.08C14.3411 214.968 15.8551 215.175 17.2023 214.644L34.1667 207.91L51.1333 214.644C51.6233 214.839 52.1363 214.935 52.6452 214.935C53.5335 214.935 54.4156 214.644 55.1559 214.08C56.3196 213.192 56.9806 211.75 56.9118 210.241L56.0464 191.24L67.395 176.398C68.2938 175.222 68.569 173.647 68.1248 172.212ZM48.3702 186.958C47.7195 187.808 47.388 188.882 47.4359 189.974L48.0678 203.851L35.6786 198.932C35.1906 198.737 34.6797 198.641 34.1667 198.641C33.6537 198.641 33.1428 198.737 32.6548 198.932L20.2677 203.848L20.8996 189.974C20.9497 188.882 20.616 187.808 19.9654 186.958L11.676 176.12L24.4552 172.464C25.4603 172.175 26.3299 171.512 26.9013 170.598L34.1667 158.982L41.4342 170.598C42.0056 171.512 42.8752 172.175 43.8804 172.464L56.6574 176.12L48.3702 186.958Z" fill="black"/>
<path d="M158.021 170.143H85.4166V179.101H158.021V170.143Z" fill="black"/>
<path d="M205 192.539H85.4166V201.497H205V192.539Z" fill="black"/>
</g>
<defs>
<clipPath id="clip0_13_6648">
<rect width="205" height="215" fill="white"/>
</clipPath>
</defs>
</svg>
