<svg width="180" height="139" viewBox="0 0 180 139" fill="none" xmlns="http://www.w3.org/2000/svg">
<path d="M78.1771 138.424C73.9441 137.769 69.9762 137.409 66.2706 136.227C48.0906 130.43 30.0083 124.326 11.8263 118.535C7.09973 117.03 4.036 114.175 2.55043 109.623C-0.388272 100.62 -1.10694 91.7108 4.59536 83.1508C3.16309 82.4813 1.88463 81.8838 0 81.0028C1.30311 79.9946 2.20917 79.1251 3.26678 78.5208C4.41061 77.8673 5.68222 77.4253 6.92224 76.9547C9.79334 75.8653 13.8175 76.3119 13.4035 71.2526C12.9616 65.8531 13.8919 60.1092 7.96844 56.7226C6.22395 55.7252 4.80238 54.163 3.2328 52.8597C5.00122 51.8429 6.742 50.7727 8.5518 49.8358C9.26868 49.4648 10.1389 49.39 11.4708 49.0412C7.01547 42.7156 5.55554 35.7271 5.84396 28.292C6.22993 18.3427 10.9001 13.7581 20.7666 12.4525C50.6146 8.50252 80.4204 4.23507 110.259 0.20986C112.796 -0.132364 115.598 -0.0954986 118.028 0.616598C136.184 5.93777 154.285 11.4472 172.374 16.9934C173.773 17.4225 174.948 18.5835 176.227 19.4043C175.128 20.5073 174.206 21.924 172.901 22.6582C167.683 25.5922 163.974 35.0064 166.414 40.2939C166.909 41.3669 168.63 41.9987 169.906 42.5619C172.996 43.9251 176.156 45.128 179.288 46.3956C179.243 46.9094 179.198 47.4232 179.153 47.937C176.27 48.8765 173.386 49.8159 170.56 50.7369C175.715 62.4 175.14 73.3137 167.234 83.2049C168.473 84.3661 169.683 85.5001 170.893 86.6341C169.558 87.7649 168.363 89.1485 166.861 89.9798C162.025 92.6581 158.337 103.724 161.209 107.972C161.826 108.883 163.455 109.132 164.641 109.631C167.717 110.925 170.806 112.189 173.89 113.464C173.826 114.075 173.762 114.685 173.698 115.295C141.987 122.977 110.275 130.659 78.1771 138.424ZM134.14 86.3447C143.069 83.7749 152.038 81.3355 160.894 78.5352C162.874 77.909 165.714 76.2395 165.991 74.6687C166.944 69.2505 167.485 63.6253 167.101 58.1547C166.857 54.6836 164.093 53.0562 160.099 54.5609C154.675 56.6037 149.076 58.1779 143.553 59.9584C128.427 64.8351 113.302 69.7146 98.6735 74.4327C98.6735 81.7874 98.6735 88.6999 98.6735 96.1449C110.704 92.8065 122.027 89.6646 134.14 86.3447ZM65.2806 126.709C68.4138 127.596 71.547 128.483 75.3868 129.57C75.3868 122.121 75.3868 115.256 75.3868 108.154C55.0027 101.494 34.515 94.882 14.097 88.0612C10.0767 86.7182 7.34328 88.1452 7.05683 91.7155C6.63048 97.0295 7.0741 102.506 7.95451 107.778C8.23456 109.456 10.8625 111.465 12.7937 112.029C29.97 117.041 47.2311 121.764 65.2806 126.709ZM49.9833 53.981C60.1383 56.8865 70.2934 59.792 81.4592 62.9866C81.4592 56.0608 81.6249 49.9094 81.3209 43.7814C81.2593 42.5387 79.6483 40.713 78.3745 40.2888C58.712 33.7427 38.9718 27.4303 19.2901 20.9409C15.5157 19.6964 12.7585 21.2857 12.5223 24.5095C12.1196 30.0069 12.6304 35.645 13.4751 41.113C13.7139 42.6588 16.2454 44.497 18.0718 45.0439C28.3932 48.1342 38.82 50.8724 49.9833 53.981ZM107.675 56.7859C126.122 52.2215 144.569 47.6571 162.408 43.2429C162.908 36.887 163.344 31.3496 163.83 25.1654C137.673 30.5271 111.328 35.9275 84.6687 41.3921C84.6687 48.7649 84.6687 55.5088 84.6687 62.5151C92.1446 60.7028 99.5336 58.9115 107.675 56.7859ZM56.8869 67.1092C43.0103 64.2731 29.1336 61.437 15.7544 58.7027C16.2871 65.004 16.7706 70.7239 17.2844 76.8031C42.9214 83.1739 68.7809 89.6 94.6412 96.0263C94.6412 88.585 94.6412 81.8076 94.6412 74.9422C82.0786 72.353 69.8905 69.841 56.8869 67.1092ZM154.528 110.707C155.545 109.791 157.384 108.923 157.442 107.95C157.739 102.928 157.58 97.8786 157.58 92.2439C132.266 97.5745 105.966 103.113 79.3275 108.722C79.3275 115.843 79.3275 122.584 79.3275 129.552C104.182 123.331 128.962 117.129 154.528 110.707Z" fill="#050505"/>
</svg>
