<svg width="147" height="158" viewBox="0 0 147 158" fill="none" xmlns="http://www.w3.org/2000/svg">
<path d="M4.58693 125.126C11.2008 108.821 23.3429 98.9187 39.2841 93.8442C61.4461 86.7896 83.9689 86.6339 106.178 93.5392C132.652 101.771 147.518 123.475 146.486 151.094C146.308 155.869 144.407 157.66 139.132 157.677C124.304 157.725 109.475 157.695 94.6473 157.695C65.9906 157.695 37.3339 157.701 8.6772 157.691C1.35414 157.689 -0.622907 156.135 0.159747 148.934C1.01619 141.055 2.9659 133.294 4.58693 125.126Z" fill="#020202"/>
<path d="M37.2312 52.695C30.7427 29.335 40.9019 8.22241 61.4157 1.81891C76.6796 -2.9458 93.001 1.83838 102.862 13.968C113.005 26.443 114.353 45.8514 105.842 60.421C98.192 73.5165 86.8214 81.1498 71.4561 80.2112C54.1805 79.1558 43.2683 68.9785 37.2312 52.695Z" fill="#030303"/>
</svg>
