<svg width="191" height="157" viewBox="0 0 191 157" fill="none" xmlns="http://www.w3.org/2000/svg">
<path d="M119.927 156.048C117.78 156.048 116.115 156.083 114.451 156.04C108.173 155.878 104.895 152.703 104.853 146.456C104.776 134.804 104.83 123.151 104.83 111.498C104.83 78.0381 104.825 44.5781 104.834 11.1181C104.837 2.80094 107.586 0.0576558 115.875 0.0356828C120.536 0.0233538 125.199 -0.049217 129.858 0.056801C135.614 0.187783 138.91 3.32761 138.917 9.06089C138.975 55.0059 138.974 100.951 138.918 146.896C138.911 152.59 135.564 155.822 129.896 156.025C126.738 156.138 123.571 156.047 119.927 156.048Z" fill="black"/>
<path d="M51.5958 131.099C51.5963 105.3 51.5864 79.9998 51.6033 54.7C51.6088 46.5769 54.3025 43.8522 62.286 43.8122C67.1128 43.788 71.9427 43.7059 76.7661 43.8389C82.4564 43.9958 85.7669 47.2228 85.7799 52.9416C85.8506 84.2335 85.8499 115.526 85.78 146.817C85.7675 152.432 82.3234 155.859 76.7789 156.014C71.4568 156.164 66.1251 156.141 60.8015 156.024C54.867 155.893 51.7245 152.635 51.6163 146.579C51.5272 141.588 51.5966 136.593 51.5958 131.099Z" fill="#010101"/>
<path d="M156.051 121.1C156.051 101.115 156.036 81.6292 156.059 62.1437C156.068 54.2841 159.095 51.2724 166.923 51.2358C171.586 51.214 176.251 51.1592 180.913 51.2516C186.909 51.3704 190.4 54.5625 190.419 60.4632C190.512 89.2747 190.512 118.087 190.418 146.898C190.4 152.577 186.953 155.884 181.345 156.027C176.019 156.162 170.685 156.151 165.358 156.031C159.49 155.9 156.163 152.548 156.082 146.581C155.968 138.256 156.052 129.927 156.051 121.1Z" fill="#050505"/>
<path d="M22.5945 85.5519C31.7447 85.6927 34.4111 88.3351 34.4208 96.9213C34.4389 112.901 34.4419 128.881 34.4196 144.861C34.4081 153.102 31.4937 156.029 23.3647 156.056C18.7039 156.072 14.0408 156.146 9.38269 156.034C3.48224 155.893 0.103334 152.592 0.0714727 146.633C-0.0212393 129.322 -0.0295409 112.01 0.0808721 94.6985C0.117188 89.0129 3.46228 85.7795 9.14966 85.5868C13.4727 85.4402 17.8045 85.5538 22.5945 85.5519Z" fill="#050505"/>
</svg>
