<svg width="143" height="183" viewBox="0 0 143 183" fill="none" xmlns="http://www.w3.org/2000/svg">
<path d="M142.86 129.669C142.86 142.326 142.899 154.484 142.849 166.641C142.807 177.145 137.337 182.826 126.928 182.846C89.9558 182.917 52.9834 182.913 16.0113 182.847C5.55838 182.828 0.0546311 177.25 0.0417221 166.672C-0.0136969 121.206 -0.0148277 75.7404 0.0438583 30.2747C0.0569503 20.113 5.72416 14.5697 15.8157 14.4725C20.8115 14.4244 25.8081 14.4672 30.8043 14.4614C34.0221 14.4577 37.3863 15.2642 38.8305 10.7218C39.1884 9.59572 42.1645 8.8608 43.9923 8.7325C48.1335 8.44191 52.3091 8.64113 56.84 8.64113C59.2245 -2.56706 68.2317 0.46767 75.664 0.145283C81.3138 -0.0997134 84.7403 2.79787 85.866 8.64107C89.4402 8.64107 92.9057 8.72518 96.3653 8.61898C100.332 8.49715 104.07 8.4601 105.728 13.2329C105.975 13.9422 107.897 14.3881 109.054 14.409C115.381 14.5236 121.712 14.3823 128.038 14.49C137.052 14.6435 142.777 20.4447 142.827 29.7441C142.932 48.8956 142.853 68.0481 142.853 87.2002C142.852 101.19 142.857 115.179 142.86 129.669ZM16.9224 161.083C16.9224 162.676 16.9224 164.269 16.9224 165.956C53.5315 165.956 89.4755 165.956 125.58 165.956C125.58 121.099 125.58 76.4017 125.58 31.5351C118.603 31.5351 111.95 31.4625 105.301 31.5954C103.944 31.6225 102.599 32.4145 101.252 32.8656C97.2785 34.1959 93.3569 36.4679 89.325 36.683C79.0249 37.2327 68.6759 36.8469 58.3467 36.8746C52.0269 36.8915 45.5576 37.5544 40.7203 32.0883C40.44 31.7714 39.8447 31.5894 39.3951 31.5876C31.9776 31.5573 24.56 31.5661 16.9227 31.5661C16.9227 74.8371 16.9227 117.466 16.9224 161.083ZM24.3505 19.8407C22.5179 19.8407 20.6853 19.84 18.8528 19.8407C7.90967 19.845 5.59861 22.1114 5.59827 32.8559C5.59702 77.0047 5.59434 121.153 5.6005 165.302C5.60184 174.863 8.19614 177.489 17.6719 177.492C53.4907 177.502 89.3095 177.502 125.128 177.493C134.729 177.491 137.502 174.669 137.503 164.92C137.509 120.771 137.508 76.6222 137.499 32.4734C137.499 30.977 137.494 29.4699 137.327 27.9863C136.839 23.6634 134.423 20.4988 130.147 20.2724C122.09 19.8458 113.993 20.1493 105.778 20.1493C105.778 22.1443 105.778 23.7652 105.778 25.8277C111.658 25.8277 117.455 25.8117 123.252 25.8321C129.461 25.8539 131.379 27.6169 131.384 33.7941C131.423 77.1099 131.422 120.426 131.385 163.741C131.38 169.683 129.496 171.496 123.605 171.499C88.7855 171.52 53.9663 171.521 19.147 171.498C13.4283 171.494 11.6788 169.775 11.6756 164.093C11.6507 120.444 11.6509 76.7955 11.6765 33.1465C11.6797 27.6713 13.613 25.8732 19.3001 25.8366C25.2697 25.7982 31.2399 25.828 37.5035 25.828C37.3457 23.638 37.2199 21.8911 37.0721 19.8407C32.9505 19.8407 29.1411 19.8407 24.3505 19.8407ZM52.7847 31.6409C65.2822 31.6406 77.78 31.6919 90.2771 31.6165C95.7425 31.5835 99.2813 29.1439 99.8165 24.7441C100.227 21.3688 99.8982 17.9036 99.8982 14.2304C90.1542 14.2304 80.8422 14.2304 71.5303 14.2304C62.0832 14.2304 52.636 14.2304 43.2472 14.2304C41.6756 26.7848 43.4421 30.2326 52.7847 31.6409ZM65.9393 5.70797C64.8519 6.37191 63.7645 7.03591 62.6772 7.69985C68.0523 8.6509 72.983 8.65944 77.9136 8.63979C78.5096 8.63741 79.105 8.48226 80.8101 8.24092C76.0282 4.0729 71.1427 6.34688 65.9393 5.70797Z" fill="black"/>
<path d="M56.5118 88.0923C58.4981 87.5607 60.188 87.2144 61.8779 86.8683C61.4809 88.5639 61.6072 90.7217 60.5919 91.8712C57.0776 95.8499 53.044 99.3655 49.4461 103.276C46.7976 106.155 44.5476 106.22 42.0417 103.27C40.9697 102.008 39.3642 101.07 38.669 99.6559C38.0815 98.4611 38.4579 96.7924 38.4078 95.3334C39.7411 95.516 41.3623 95.295 42.3321 95.9869C43.454 96.7873 44.0023 98.3915 44.1903 98.6874C47.4206 96.2973 49.7421 94.5796 52.0636 92.862C51.8817 92.5519 51.6999 92.2417 51.518 91.9316C45.8644 91.9316 40.2108 91.9316 34.299 91.9316C34.299 97.3631 34.299 102.769 34.299 108.49C39.949 108.49 45.5114 108.49 51.3557 108.49C51.5555 107.283 51.5214 105.912 52.0562 104.819C52.4062 104.104 53.5946 103.384 54.3806 103.412C55.1666 103.441 56.2421 104.229 56.6324 104.975C58.7001 108.932 55.9667 113.905 51.3666 114.136C45.7263 114.421 40.0556 114.355 34.4082 114.155C30.6864 114.022 28.7288 111.843 28.7591 107.99C28.8009 102.668 28.3724 97.3013 28.9624 92.0455C29.2024 89.9079 31.4443 86.424 33.0215 86.2816C39.5884 85.6891 46.2528 86.0401 52.872 86.2932C54.01 86.3366 55.1021 87.5857 56.5118 88.0923Z" fill="black"/>
<path d="M28.7604 64.637C28.7617 60.6589 28.8888 57.1671 28.7281 53.6887C28.572 50.3095 29.9905 48.7654 33.359 48.7901C39.6666 48.8365 45.975 48.8437 52.2823 48.7868C55.6278 48.7566 57.0615 50.2337 56.9903 53.6281C56.8582 59.9333 56.8496 66.2454 56.9954 72.55C57.0698 75.7678 55.5814 77.1721 52.5914 77.1959C46.118 77.2476 39.6437 77.2445 33.1702 77.1975C30.2033 77.1759 28.5391 75.8472 28.7337 72.5973C28.8823 70.1164 28.7614 67.6192 28.7604 64.637ZM43.3314 54.2064C40.3942 54.2064 37.457 54.2064 34.3098 54.2064C34.3098 60.2542 34.3098 65.7825 34.3098 71.2581C40.2554 71.2581 45.9239 71.2581 51.4281 71.2581C51.4281 65.4455 51.4281 60.0308 51.4281 54.2063C48.8852 54.2063 46.5972 54.2063 43.3314 54.2064Z" fill="black"/>
<path d="M28.7617 128.982C28.2828 124.691 29.9137 122.995 33.8206 123.08C39.9826 123.214 46.1499 123.157 52.3143 123.104C55.667 123.075 57.0856 124.533 56.999 127.963C56.8392 134.29 56.8616 140.626 56.9903 146.955C57.0551 150.138 55.7443 151.564 52.5947 151.545C46.0969 151.504 39.5985 151.507 33.1006 151.543C29.9493 151.561 28.6468 150.127 28.7242 146.939C28.8657 141.111 28.7627 135.277 28.7617 128.982ZM34.0427 132.405C34.0427 136.834 34.0427 141.263 34.0427 145.875C40.1238 145.875 45.6758 145.875 51.4232 145.875C51.4232 140.087 51.4232 134.555 51.4232 128.688C46.2279 128.688 41.2836 128.562 36.3583 128.812C35.5439 128.853 34.8126 130.535 34.0427 132.405Z" fill="black"/>
<path d="M64.1879 63.6816C78.9897 63.3039 93.442 63.0816 107.894 63.1145C109.022 63.1171 110.147 64.9034 111.274 65.8606C110.125 66.7917 108.986 68.5173 107.825 68.5326C94.0196 68.7155 80.21 68.7258 66.4039 68.5712C63.5436 68.5392 62.0306 66.9224 64.1879 63.6816Z" fill="black"/>
<path d="M102.687 108.641C90.9149 108.66 79.6171 108.811 68.328 108.563C66.5456 108.524 64.8026 106.687 63.0413 105.68C64.7576 104.81 66.4613 103.214 68.1922 103.184C80.6465 102.967 93.1065 103.038 105.564 103.094C107.903 103.105 111.258 102.317 111.023 106.072C110.961 107.048 107.569 107.901 105.637 108.628C104.914 108.9 103.994 108.652 102.687 108.641Z" fill="black"/>
<path d="M96.8202 145.692C86.8604 145.692 77.395 145.825 67.9405 145.565C66.3033 145.52 64.712 143.809 63.0995 142.868C64.6707 142.058 66.232 140.568 67.8148 140.545C80.7596 140.355 93.7097 140.353 106.654 140.551C108.187 140.574 109.697 142.143 111.217 142.995C109.738 143.894 108.335 145.363 106.764 145.571C103.664 145.981 100.472 145.692 96.8202 145.692Z" fill="#020202"/>
<path d="M77.843 97.039C73.6977 97.0308 70.0346 97.207 66.4109 96.9071C65.2578 96.8117 64.2095 95.4502 63.1133 94.6681C64.18 93.6716 65.2254 91.8381 66.3167 91.8104C75.4307 91.5786 84.5556 91.5807 93.6699 91.8074C94.7693 91.8347 95.8251 93.6197 96.9011 94.5899C95.8546 95.4018 94.8399 96.862 93.7561 96.9153C88.6279 97.1671 83.4808 97.0345 77.843 97.039Z" fill="#050505"/>
<path d="M64.1214 129.539C68.4063 129.11 72.3767 128.72 76.3202 128.904C77.5346 128.96 78.6759 130.585 79.8506 131.492C78.7364 132.461 77.704 134.123 76.4922 134.267C73.2115 134.654 69.8435 134.563 66.5311 134.344C63.7524 134.16 62.0054 132.935 64.1214 129.539Z" fill="black"/>
<path d="M64.7148 51.9425C67.9142 51.7353 70.7601 51.4244 73.5149 51.7937C74.7392 51.9577 75.7797 53.494 76.9036 54.4074C75.738 55.2609 74.664 56.6264 73.3866 56.8549C71.1446 57.256 68.7665 57.1061 66.4664 56.9229C63.0101 56.6477 61.8832 55.1232 64.7148 51.9425Z" fill="#050505"/>
</svg>
