<svg width="51" height="40" viewBox="0 0 51 40" fill="none" xmlns="http://www.w3.org/2000/svg">
<path d="M39.1038 25.1782C37.1288 23.2823 35.7344 22.3172 35.7344 17.0904C35.7344 12.3039 32.618 10.5986 30.0531 9.77041C29.7124 9.66063 29.3917 9.40849 29.2879 9.13403C28.8379 7.93303 27.5766 6.875 25.9 6.875C24.2234 6.875 22.9613 7.93364 22.516 9.13523C22.4122 9.41271 22.0915 9.66063 21.7507 9.77041C19.1827 10.5998 16.0695 12.2991 16.0695 17.0904C16.0656 22.3172 14.6712 23.2823 12.6962 25.1782C11.8779 25.9636 12.5947 27.1429 14.026 27.1429H37.7817C39.2053 27.1429 39.9175 25.96 39.1038 25.1782Z" stroke="#22873B" stroke-width="2" stroke-linecap="round" stroke-linejoin="round"/>
<path d="M30.8227 27.142V28.1071C30.8227 29.131 30.3041 30.1129 29.381 30.8369C28.4579 31.5609 27.2059 31.9676 25.9005 31.9676C24.595 31.9676 23.343 31.5609 22.42 30.8369C21.4969 30.1129 20.9783 29.131 20.9783 28.1071V27.142" stroke="#22873B" stroke-width="2" stroke-linecap="round" stroke-linejoin="round"/>
</svg>
