<svg width="32" height="30" viewBox="0 0 32 30" fill="none" xmlns="http://www.w3.org/2000/svg">
<path d="M18.578 28.6322L19.3849 27.3543L17.4635 26.2882L16.6567 27.5662L18.578 28.6322ZM12.6151 27.3543L13.422 28.6322L15.3432 27.5662L14.5363 26.2882L12.6151 27.3543ZM16.6567 27.5662C16.3699 28.0205 15.6301 28.0205 15.3432 27.5662L13.422 28.6322C14.5734 30.4559 17.4266 30.4559 18.578 28.6322L16.6567 27.5662ZM13.7674 2.09303H18.2326V2.87515e-07H13.7674V2.09303ZM29.7674 12.907V14.3024H32V12.907H29.7674ZM2.23256 14.3024V12.907H3.06682e-07V14.3024H2.23256ZM3.06682e-07 14.3024C3.06682e-07 15.9134 -0.000609973 17.1741 0.0733919 18.1909C0.148093 19.2172 0.302482 20.0713 0.651446 20.8611L2.71406 20.0601C2.49655 19.5679 2.36772 18.9681 2.30079 18.0485C2.23317 17.1194 2.23256 15.942 2.23256 14.3024H3.06682e-07ZM9.75256 23.7093C7.884 23.679 6.9049 23.5676 6.13744 23.2696L5.28308 25.2033C6.48118 25.6685 7.84577 25.7717 9.7141 25.8019L9.75256 23.7093ZM0.651446 20.8611C1.52004 22.827 3.1861 24.3889 5.28308 25.2033L6.13744 23.2696C4.58749 22.6676 3.35607 21.5133 2.71406 20.0601L0.651446 20.8611ZM29.7674 14.3024C29.7674 15.942 29.7668 17.1194 29.6993 18.0485C29.6323 18.9681 29.5034 19.5679 29.286 20.0601L31.3485 20.8611C31.6976 20.0713 31.8519 19.2172 31.9266 18.1909C32.0006 17.1741 32 15.9134 32 14.3024H29.7674ZM22.2858 25.8019C24.1542 25.7717 25.5189 25.6685 26.7169 25.2033L25.8625 23.2696C25.0951 23.5676 24.1159 23.679 22.2474 23.7093L22.2858 25.8019ZM29.286 20.0601C28.6439 21.5133 27.4125 22.6676 25.8625 23.2696L26.7169 25.2033C28.8138 24.3889 30.4799 22.827 31.3485 20.8611L29.286 20.0601ZM18.2326 2.09303C20.6902 2.09303 22.4551 2.09413 23.8317 2.21684C25.1917 2.33807 26.0571 2.57056 26.7469 2.96691L27.9135 1.18231C26.8138 0.550564 25.5664 0.26901 24.043 0.133214C22.5362 -0.0011021 20.647 2.87515e-07 18.2326 2.87515e-07V2.09303ZM32 12.907C32 10.6435 32.0012 8.87235 31.8579 7.45971C31.713 6.03149 31.4127 4.86204 30.7389 3.83112L28.8353 4.92473C29.2581 5.57152 29.5061 6.38281 29.6354 7.65782C29.7663 8.94839 29.7674 10.6029 29.7674 12.907H32ZM26.7469 2.96691C27.5981 3.4559 28.3137 4.12678 28.8353 4.92473L30.7389 3.83112C30.0333 2.75155 29.0651 1.84387 27.9135 1.18231L26.7469 2.96691ZM13.7674 2.87515e-07C11.353 2.87515e-07 9.46381 -0.0011021 7.957 0.133214C6.43358 0.26901 5.18616 0.550564 4.08652 1.18231L5.25303 2.96691C5.94294 2.57056 6.80832 2.33807 8.16832 2.21684C9.54493 2.09413 11.3098 2.09303 13.7674 2.09303V2.87515e-07ZM2.23256 12.907C2.23256 10.6029 2.23373 8.94839 2.36462 7.65782C2.49393 6.38281 2.74192 5.57152 3.1647 4.92473L1.26113 3.83112C0.587267 4.86204 0.286944 6.03149 0.142095 7.45971C-0.00117556 8.87235 3.06682e-07 10.6435 3.06682e-07 12.907H2.23256ZM4.08652 1.18231C2.93498 1.84387 1.96679 2.75155 1.26113 3.83112L3.1647 4.92473C3.68628 4.12678 4.40189 3.4559 5.25303 2.96691L4.08652 1.18231ZM14.5363 26.2882C14.2342 25.8095 13.969 25.3872 13.711 25.0554C13.4393 24.706 13.1277 24.3913 12.6956 24.1556L11.5732 25.965C11.6437 26.0034 11.7399 26.0735 11.9068 26.2882C12.0874 26.5206 12.2915 26.8417 12.6151 27.3543L14.5363 26.2882ZM9.7141 25.8019C10.3676 25.8125 10.7816 25.8203 11.0971 25.8529C11.392 25.8836 11.5063 25.9284 11.5732 25.965L12.6956 24.1556C12.2599 23.918 11.8065 23.8208 11.3428 23.7726C10.8999 23.7267 10.3647 23.7192 9.75256 23.7093L9.7141 25.8019ZM19.3849 27.3543C19.7084 26.8417 19.9125 26.5206 20.0932 26.2882C20.26 26.0735 20.3562 26.0034 20.4267 25.965L19.3043 24.1556C18.8723 24.3913 18.5606 24.706 18.289 25.0554C18.031 25.3872 17.7658 25.8095 17.4635 26.2882L19.3849 27.3543ZM22.2474 23.7093C21.6353 23.7192 21.1001 23.7267 20.6571 23.7726C20.1935 23.8208 19.7401 23.918 19.3043 24.1556L20.4267 25.965C20.4937 25.9284 20.608 25.8836 20.9028 25.8529C21.2184 25.8203 21.6323 25.8125 22.2858 25.8019L22.2474 23.7093Z" fill="#22873B"/>
<path opacity="0.5" d="M10.0464 13.6047H10.0598M15.9865 13.6047H15.9999M21.94 13.6047H21.9534" stroke="#1DD24B" stroke-opacity="0.98" stroke-width="5" stroke-linecap="round" stroke-linejoin="round"/>
</svg>
