<svg width="28" height="27" viewBox="0 0 28 27" fill="none" xmlns="http://www.w3.org/2000/svg">
<path d="M5.76633 3.77778H27L24.1111 13.5H7.32191M25.5556 19.0556H8.22222L5.33333 1H1M9.66667 24.6111C9.66667 25.3782 9.01996 26 8.22222 26C7.42448 26 6.77778 25.3782 6.77778 24.6111C6.77778 23.844 7.42448 23.2222 8.22222 23.2222C9.01996 23.2222 9.66667 23.844 9.66667 24.6111ZM25.5556 24.6111C25.5556 25.3782 24.9089 26 24.1111 26C23.3133 26 22.6667 25.3782 22.6667 24.6111C22.6667 23.844 23.3133 23.2222 24.1111 23.2222C24.9089 23.2222 25.5556 23.844 25.5556 24.6111Z" stroke="#22873B" stroke-width="2" stroke-linecap="round" stroke-linejoin="round"/>
</svg>
